<svg id="visual" viewBox="0 0 900 450" width="900" height="450" xmlns="http://www.w3.org/2000/svg" xmlns:xlink="http://www.w3.org/1999/xlink" version="1.1"><g transform="translate(44.113972798752705 -37.75424241223892)"><path d="M47.8 -59.6C57 -49.2 56.2 -29.5 69.8 -4.6C83.4 20.3 111.4 50.4 112.8 81.3C114.3 112.2 89.1 144 53.5 164.6C17.9 185.1 -28.2 194.5 -69 182.6C-109.8 170.8 -145.4 137.6 -170 97.1C-194.5 56.6 -208.1 8.8 -197.4 -31.9C-186.7 -72.5 -151.9 -106 -114.9 -111.5C-78 -116.9 -39 -94.5 -9.9 -82.7C19.3 -71 38.6 -70 47.8 -59.6" fill="#33ffad"></path></g></svg>