<svg id="visual" viewBox="0 0 900 450" width="900" height="450" xmlns="http://www.w3.org/2000/svg" xmlns:xlink="http://www.w3.org/1999/xlink" version="1.1"><g transform="translate(906.099130891733 -0.8387710996648252)"><path d="M190.5 -231.4C242.2 -183.7 276.2 -119.2 241.5 -77.8C206.8 -36.5 103.4 -18.2 80.6 70.2C57.7 158.6 115.4 317.1 110.5 330.8C105.5 344.4 37.9 213.1 -27.4 154.8C-92.6 96.5 -155.4 111.3 -195.4 89.7C-235.4 68.1 -252.6 10.3 -262.2 -65.5C-271.8 -141.3 -273.8 -234.9 -228.8 -283.9C-183.8 -332.8 -91.9 -336.9 -11.2 -323.5C69.4 -310.1 138.8 -279.1 190.5 -231.4" fill="#ff3300"></path></g></svg>