<svg id="visual" viewBox="0 0 900 450" width="900" height="450" xmlns="http://www.w3.org/2000/svg" xmlns:xlink="http://www.w3.org/1999/xlink" version="1.1"><rect x="0" y="0" width="900" height="450" fill="#f2f2f2"></rect><defs><linearGradient id="grad1_0" x1="50%" y1="100%" x2="100%" y2="0%"><stop offset="10%" stop-color="#f2f2f2" stop-opacity="1"></stop><stop offset="90%" stop-color="#f2f2f2" stop-opacity="1"></stop></linearGradient></defs><defs><linearGradient id="grad2_0" x1="0%" y1="100%" x2="50%" y2="0%"><stop offset="10%" stop-color="#f2f2f2" stop-opacity="1"></stop><stop offset="90%" stop-color="#f2f2f2" stop-opacity="1"></stop></linearGradient></defs><g transform="translate(900, 450)"><path d="M-405 0C-398.6 -52.1 -392.1 -104.2 -374.2 -155C-356.2 -205.8 -326.7 -255.4 -285.7 -285.7C-244.6 -316 -191.9 -327 -142.4 -343.7C-92.8 -360.4 -46.4 -382.7 0 -405L0 0Z" fill="#ff3300"></path></g><g transform="translate(0, 0)"><path d="M405 0C398.3 51 391.7 101.9 374.2 155C356.7 208 328.3 263.2 282.8 282.8C237.4 302.5 174.8 286.7 124.8 301.2C74.8 315.6 37.4 360.3 0 405L0 0Z" fill="#ff3300"></path></g></svg>