<svg id="visual" viewBox="0 0 900 450" width="900" height="450" xmlns="http://www.w3.org/2000/svg" xmlns:xlink="http://www.w3.org/1999/xlink" version="1.1"><rect x="0" y="0" width="900" height="450" fill="#f2f2f2"></rect><path d="M0 353L21.5 349C43 345 86 337 128.8 339.3C171.7 341.7 214.3 354.3 257.2 363.8C300 373.3 343 379.7 385.8 378C428.7 376.3 471.3 366.7 514.2 355C557 343.3 600 329.7 642.8 332.3C685.7 335 728.3 354 771.2 355.3C814 356.7 857 340.3 878.5 332.2L900 324L900 451L878.5 451C857 451 814 451 771.2 451C728.3 451 685.7 451 642.8 451C600 451 557 451 514.2 451C471.3 451 428.7 451 385.8 451C343 451 300 451 257.2 451C214.3 451 171.7 451 128.8 451C86 451 43 451 21.5 451L0 451Z" fill="#00ff99"></path><path d="M0 380L21.5 383C43 386 86 392 128.8 397.2C171.7 402.3 214.3 406.7 257.2 404.3C300 402 343 393 385.8 385.7C428.7 378.3 471.3 372.7 514.2 369.5C557 366.3 600 365.7 642.8 366.7C685.7 367.7 728.3 370.3 771.2 372.8C814 375.3 857 377.7 878.5 378.8L900 380L900 451L878.5 451C857 451 814 451 771.2 451C728.3 451 685.7 451 642.8 451C600 451 557 451 514.2 451C471.3 451 428.7 451 385.8 451C343 451 300 451 257.2 451C214.3 451 171.7 451 128.8 451C86 451 43 451 21.5 451L0 451Z" fill="#00ff99"></path></svg>