<svg id="visual" viewBox="0 0 900 450" width="900" height="450" xmlns="http://www.w3.org/2000/svg" xmlns:xlink="http://www.w3.org/1999/xlink" version="1.1"><rect x="0" y="0" width="900" height="450" fill="#f2f2f2"></rect><path d="M0 393L75 393.5C150 394 300 395 450 395.8C600 396.7 750 397.3 825 397.7L900 398L900 451L825 451C750 451 600 451 450 451C300 451 150 451 75 451L0 451Z" fill="#e6e6e6"></path><path d="M0 416L75 416.2C150 416.3 300 416.7 450 417.5C600 418.3 750 419.7 825 420.3L900 421L900 451L825 451C750 451 600 451 450 451C300 451 150 451 75 451L0 451Z" fill="#d9d9d9"></path></svg>