<svg id="visual" viewBox="0 0 900 450" width="900" height="450" xmlns="http://www.w3.org/2000/svg" xmlns:xlink="http://www.w3.org/1999/xlink" version="1.1"><rect x="0" y="0" width="900" height="450" fill="#33ffad"></rect><defs><linearGradient id="grad1_0" x1="50%" y1="0%" x2="100%" y2="100%"><stop offset="10%" stop-color="#33ffad" stop-opacity="1"></stop><stop offset="90%" stop-color="#33ffad" stop-opacity="1"></stop></linearGradient></defs><defs><linearGradient id="grad2_0" x1="0%" y1="0%" x2="50%" y2="100%"><stop offset="10%" stop-color="#33ffad" stop-opacity="1"></stop><stop offset="90%" stop-color="#33ffad" stop-opacity="1"></stop></linearGradient></defs><g transform="translate(900, 0)"><path d="M0 405C-43.3 366.3 -86.7 327.6 -124.8 301.2C-162.8 274.8 -195.6 260.8 -241.1 241.1C-286.6 221.4 -344.7 196.1 -374.2 155C-403.6 113.9 -404.3 56.9 -405 0L0 0Z" fill="#f2f2f2"></path></g><g transform="translate(0, 450)"><path d="M0 -405C53 -396.6 106.1 -388.1 151.9 -366.8C197.8 -345.4 236.4 -311.1 275.1 -275.1C313.8 -239 352.5 -201.1 374.2 -155C395.8 -108.8 400.4 -54.4 405 0L0 0Z" fill="#f2f2f2"></path></g></svg>