<svg id="visual" viewBox="0 0 900 450" width="900" height="450" xmlns="http://www.w3.org/2000/svg" xmlns:xlink="http://www.w3.org/1999/xlink" version="1.1"><path d="M0 423L75 423.2C150 423.3 300 423.7 450 422.7C600 421.7 750 419.3 825 418.2L900 417L900 451L825 451C750 451 600 451 450 451C300 451 150 451 75 451L0 451Z" fill="#e6e6e6"></path><path d="M0 430L75 430.5C150 431 300 432 450 432.2C600 432.3 750 431.7 825 431.3L900 431L900 451L825 451C750 451 600 451 450 451C300 451 150 451 75 451L0 451Z" fill="#e6e6e6"></path></svg>