<svg id="visual" viewBox="0 0 900 450" width="900" height="450" xmlns="http://www.w3.org/2000/svg" xmlns:xlink="http://www.w3.org/1999/xlink" version="1.1"><rect x="0" y="0" width="900" height="450" fill="#884dff"></rect><defs><linearGradient id="grad1_0" x1="50%" y1="100%" x2="100%" y2="0%"><stop offset="10%" stop-color="#884dff" stop-opacity="1"></stop><stop offset="90%" stop-color="#884dff" stop-opacity="1"></stop></linearGradient></defs><defs><linearGradient id="grad2_0" x1="0%" y1="100%" x2="50%" y2="0%"><stop offset="10%" stop-color="#884dff" stop-opacity="1"></stop><stop offset="90%" stop-color="#884dff" stop-opacity="1"></stop></linearGradient></defs><g transform="translate(900, 450)"><path d="M-405 0C-404.6 -58.4 -404.1 -116.8 -374.2 -155C-344.2 -193.2 -284.8 -211.1 -245.4 -245.4C-205.9 -279.6 -186.4 -330.1 -148.9 -359.4C-111.3 -388.7 -55.6 -396.9 0 -405L0 0Z" fill="#f2f2f2"></path></g><g transform="translate(0, 0)"><path d="M405 0C364.3 40.2 323.6 80.4 304.9 126.3C286.1 172.1 289.3 223.6 268.7 268.7C248.1 313.8 203.7 352.5 155 374.2C106.2 395.8 53.1 400.4 0 405L0 0Z" fill="#f2f2f2"></path></g></svg>