<svg id="visual" viewBox="0 0 900 450" width="900" height="450" xmlns="http://www.w3.org/2000/svg" xmlns:xlink="http://www.w3.org/1999/xlink" version="1.1"><path d="M0 396L75 396.3C150 396.7 300 397.3 450 396.7C600 396 750 394 825 393L900 392L900 451L825 451C750 451 600 451 450 451C300 451 150 451 75 451L0 451Z" fill="#e6e6e6"></path><path d="M0 418L75 418C150 418 300 418 450 417.7C600 417.3 750 416.7 825 416.3L900 416L900 451L825 451C750 451 600 451 450 451C300 451 150 451 75 451L0 451Z" fill="#d9d9d9"></path></svg>